<svg viewBox="0 0 240 120" fill="none" xmlns="http://www.w3.org/2000/svg">
  <g clip-path="url(#a)">
    <path d="M0 0h240v120H0z" fill="#C7B9FF"></path>
    <path d="M68.36 105.92c38.23 21.51 157.11 40.38 185.66-34.36C282.58-3.18 170.92-32.2 136.5-36.07c-34.42-3.87-110.72-5.2-118.4 57.33-7.67 62.53 130.46 107.11 251.76 56.35" stroke-width="3" stroke-linecap="round" stroke="#A259FF"></path>
    <g filter="url(#b)">
      <path d="M40.07 23.95h65v65h-65z" fill="#FFEA79"></path>
      <path d="M45.07 32.45h8.6c1.02 0 1.8-1.82 3.59-1.82 1.8 0 2.05 1.82 3.6 1.82 1.53 0 5.38-2.07 6.66-3.29 1.29-1.22-1.4 3.3 1.29 3.3h10.26m-34 5.99c2.58-.41 8.35-1.25 10.75-1.25 3 0 3.25 1.25 6 1.25h9.5" stroke-width="1.5" stroke-linecap="round" stroke="#000"></path>
    </g>
    <path d="m68.32 101.24.23-.18.1-.28 1.68-4.76 18.25-18.25a1.56 1.56 0 0 1 2.06-.13 26.38 26.38 0 0 1 4.74 4.74c.48.62.42 1.5-.13 2.07l-18.29 18.28-3.38 1.64h-6.55l-.42-.49a1 1 0 0 1 .15-1.44l1.56-1.2Z" stroke-width="2" stroke="#000" fill="#fff"></path>
    <path d="m72.92 93.06 6.84 6.84" stroke-width="2" stroke="#000"></path>
    <g filter="url(#c)">
      <path d="M123.07 59.95h65v65h-65z" fill="#FDC7BD"></path>
      <path d="M153.32 73.74h-6.75c-.5 0-.75-1-1.5-.75s-4.5 2.5-5.25 2.25.75-2.25 0-2.25-4.25 1.75-5.25 1.5-.75-1-2.25-1.25a8.55 8.55 0 0 0-2.75 0m-.5-4.29h14" stroke-width="1.5" stroke-linecap="round" stroke="#000"></path>
    </g>
    <g filter="url(#d)">
      <path d="M91.07-5.05h65v65h-65z" fill="#EAC287"></path>
      <path d="M97.57 3.97h6.75c.5 0 .75 1 1.5.75s4.5-2.5 5.25-2.25-.75 2.25 0 2.25 4.25-1.75 5.25-1.5.75 1 2.25 1.25c1.2.2 2.33.09 2.75 0M97.07 9.45h14" stroke-width="1.5" stroke-linecap="round" stroke="#000"></path>
    </g>
    <path clip-rule="evenodd" d="m111.25 98.46 26.91-1.4-19.3-19.87 1.75 12.9-9.36 8.37Z" stroke-width="2" stroke-linecap="square" stroke="#fff" fill-rule="evenodd" fill="#5551FF"></path>
    <path clip-rule="evenodd" d="m161.07 33.38-24-13.43 5.49 27 5.74-11.68 12.77-1.89Z" stroke-width="2" stroke-linecap="square" stroke="#fff" fill-rule="evenodd" fill="#C7B9FF"></path>
    <path clip-rule="evenodd" d="m39.78 105.33 7.52-25.87-25.12 11.7 12.77 2.59 4.83 11.58Z" stroke-width="2" stroke-linecap="square" stroke="#fff" fill-rule="evenodd" fill="#F24E1E"></path>
  </g>
  <defs>
    <filter filterUnits="userSpaceOnUse" color-interpolation-filters="sRGB" y="23.95" x="40.07" height="67.5" width="67.5" id="b">
      <feFlood result="BackgroundImageFix" flood-opacity="0"></feFlood>
      <feColorMatrix values="0 0 0 0 0 0 0 0 0 0 0 0 0 0 0 0 0 0 127 0" result="hardAlpha" in="SourceAlpha"></feColorMatrix>
      <feOffset dy="2.5" dx="2.5"></feOffset>
      <feColorMatrix values="0 0 0 0 0.00392157 0 0 0 0 0.00392157 0 0 0 0 0.00392157 0 0 0 0.2 0"></feColorMatrix>
      <feBlend result="effect1_dropShadow_800_21790" in2="BackgroundImageFix"></feBlend>
      <feBlend result="shape" in2="effect1_dropShadow_800_21790" in="SourceGraphic"></feBlend>
    </filter>
    <filter filterUnits="userSpaceOnUse" color-interpolation-filters="sRGB" y="59.95" x="123.07" height="67.5" width="67.5" id="c">
      <feFlood result="BackgroundImageFix" flood-opacity="0"></feFlood>
      <feColorMatrix values="0 0 0 0 0 0 0 0 0 0 0 0 0 0 0 0 0 0 127 0" result="hardAlpha" in="SourceAlpha"></feColorMatrix>
      <feOffset dy="2.5" dx="2.5"></feOffset>
      <feColorMatrix values="0 0 0 0 0.00392157 0 0 0 0 0.00392157 0 0 0 0 0.00392157 0 0 0 0.2 0"></feColorMatrix>
      <feBlend result="effect1_dropShadow_800_21790" in2="BackgroundImageFix"></feBlend>
      <feBlend result="shape" in2="effect1_dropShadow_800_21790" in="SourceGraphic"></feBlend>
    </filter>
    <filter filterUnits="userSpaceOnUse" color-interpolation-filters="sRGB" y="-5.05" x="91.07" height="67.5" width="67.5" id="d">
      <feFlood result="BackgroundImageFix" flood-opacity="0"></feFlood>
      <feColorMatrix values="0 0 0 0 0 0 0 0 0 0 0 0 0 0 0 0 0 0 127 0" result="hardAlpha" in="SourceAlpha"></feColorMatrix>
      <feOffset dy="2.5" dx="2.5"></feOffset>
      <feColorMatrix values="0 0 0 0 0.00392157 0 0 0 0 0.00392157 0 0 0 0 0.00392157 0 0 0 0.2 0"></feColorMatrix>
      <feBlend result="effect1_dropShadow_800_21790" in2="BackgroundImageFix"></feBlend>
      <feBlend result="shape" in2="effect1_dropShadow_800_21790" in="SourceGraphic"></feBlend>
    </filter>
    <clipPath id="a">
      <path d="M0 0h240v120H0z" fill="#fff"></path>
    </clipPath>
  </defs>
</svg>
